<?xml version="1.0" encoding="utf-8"?>
<svg version="1.1" xmlns="http://www.w3.org/2000/svg" xmlns:xlink="http://www.w3.org/1999/xlink" x="0px" y="0px"
	 viewBox="0 0 530 250" enable-background="new 0 0 530 250" xml:space="preserve">
<g id="Layer_16">
	<g>
		<g>
			<path fill="#FED690" d="M158.485,82.657c-2.219-0.101-4.162-1.361-5.352-3.24c-1.475-2.33-4.101-3.594-6.848-3.839
				c-2.147-0.192-4.042-1.337-5.224-3.154c-1.486-2.284-3.945-3.747-6.665-3.901c-2.243-0.127-4.233-1.289-5.457-3.171
				c-1.484-2.282-3.938-3.75-6.656-3.901c-2.372-0.131-4.462-1.42-5.664-3.493c-1.241-2.14-3.417-3.617-5.891-3.569
				c-2.082,0.041-4.045-0.775-5.372-2.286c-0.603-0.687-1.257-1.328-1.971-1.897c-5.817-4.63-14.062-4.63-19.879,0l-0.002,0.002
				c-0.715,0.569-1.368,1.21-1.971,1.896c-1.324,1.509-3.283,2.322-5.36,2.286c-2.478-0.043-4.659,1.43-5.904,3.573
				c-1.203,2.069-3.29,3.353-5.658,3.488c-2.717,0.154-5.174,1.618-6.659,3.899c-1.223,1.879-3.21,3.04-5.449,3.172
				c-2.721,0.16-5.187,1.615-6.674,3.9c-1.179,1.811-3.067,2.955-5.208,3.154c-2.754,0.255-5.389,1.513-6.871,3.849
				c-1.19,1.876-3.131,3.13-5.347,3.232c-4.356,0.2-8.2,3.763-8.2,8.582c0,2.063,0.728,3.955,1.941,5.435h142.602
				c1.212-1.481,1.941-3.372,1.941-5.435C166.686,86.422,162.843,82.856,158.485,82.657z"/>
		</g>
		<g>
			<path fill="#FEB872" d="M246.033,176.391c0-3.67-2.119-6.841-5.201-8.363c-1.874-0.926-3.363-2.415-4.289-4.289
				c-1.522-3.081-4.693-5.201-8.363-5.201c-3.67,0-6.841,2.119-8.363,5.201c-0.926,1.874-2.415,3.363-4.289,4.289
				c-3.081,1.522-5.201,4.693-5.201,8.363c0,3.67,2.12,6.841,5.201,8.363c1.874,0.926,3.363,2.415,4.289,4.289
				c1.522,3.081,4.693,5.201,8.363,5.201c3.67,0,6.841-2.12,8.363-5.201c0.926-1.874,2.415-3.363,4.289-4.289
				C243.914,183.232,246.033,180.061,246.033,176.391z"/>
		</g>
		<g>
			<path fill="#FED690" d="M126.063,212.272c0-3.67-2.119-6.841-5.201-8.363c-1.874-0.926-3.363-2.415-4.289-4.289
				c-1.522-3.081-4.693-5.201-8.363-5.201c-3.67,0-6.841,2.119-8.363,5.201c-0.926,1.874-2.415,3.363-4.289,4.289
				c-3.081,1.522-5.201,4.693-5.201,8.363c0,3.67,2.12,6.841,5.201,8.363c1.874,0.926,3.363,2.415,4.289,4.289
				c1.522,3.081,4.693,5.201,8.363,5.201c3.67,0,6.841-2.12,8.363-5.201c0.926-1.874,2.415-3.363,4.289-4.289
				C123.943,219.113,126.063,215.942,126.063,212.272z"/>
		</g>
		<g>
			<path fill="#FEB872" d="M224.969,94.796c0-2.596-1.499-4.839-3.679-5.916c-1.326-0.655-2.379-1.708-3.034-3.034
				c-1.077-2.18-3.32-3.679-5.916-3.679c-2.596,0-4.839,1.499-5.916,3.679c-0.655,1.326-1.708,2.379-3.034,3.034
				c-2.18,1.077-3.679,3.32-3.679,5.916c0,2.596,1.499,4.839,3.679,5.916c1.326,0.655,2.379,1.708,3.034,3.034
				c1.077,2.18,3.32,3.679,5.916,3.679c2.596,0,4.839-1.499,5.916-3.679c0.655-1.326,1.708-2.379,3.034-3.034
				C223.47,99.636,224.969,97.392,224.969,94.796z"/>
		</g>
		<g>
			<path fill="#FEB872" d="M181.487,138.018c3.67,0,6.841,2.12,8.363,5.201c0.926,1.874,2.415,3.363,4.289,4.289
				c1.118,0.552,2.103,1.326,2.912,2.257c0.809-0.931,1.795-1.705,2.912-2.257c1.874-0.926,3.363-2.415,4.289-4.289
				c1.522-3.081,4.693-5.201,8.363-5.201c0.627,0,1.232,0.083,1.824,0.201c0.293-0.905,0.464-1.865,0.464-2.869
				c0-3.67-2.119-6.841-5.201-8.363c-1.874-0.926-3.363-2.415-4.289-4.289c-1.522-3.081-4.693-5.201-8.363-5.201
				c-3.67,0-6.841,2.12-8.363,5.201c-0.926,1.874-2.415,3.363-4.289,4.289c-3.081,1.522-5.201,4.693-5.201,8.363
				c0,1.003,0.171,1.964,0.464,2.869C180.256,138.1,180.86,138.018,181.487,138.018z"/>
		</g>
		<g>
			<path fill="#E7974E" d="M197.052,158.539c3.67,0,6.841,2.12,8.363,5.201c0.926,1.874,2.415,3.363,4.289,4.289
				c1.118,0.552,2.103,1.326,2.912,2.257c0.809-0.931,1.795-1.705,2.912-2.257c1.874-0.926,3.363-2.415,4.289-4.289
				c1.522-3.081,4.693-5.201,8.363-5.201c0.627,0,1.232,0.083,1.824,0.201c0.293-0.905,0.464-1.865,0.464-2.869
				c0-3.67-2.12-6.841-5.201-8.363c-1.874-0.926-3.363-2.415-4.289-4.289c-1.522-3.081-4.693-5.201-8.363-5.201
				s-6.841,2.12-8.363,5.201c-0.926,1.874-2.415,3.363-4.289,4.289c-3.081,1.522-5.201,4.693-5.201,8.363
				c0,1.003,0.171,1.964,0.464,2.869C195.82,158.621,196.425,158.539,197.052,158.539z"/>
		</g>
		<g>
			<g>
				<path fill="#FED690" d="M195.228,158.739c-0.293-0.905-0.464-1.865-0.464-2.869c0-2.339,0.866-4.47,2.288-6.106
					c-0.809-0.931-1.795-1.705-2.912-2.257c-1.874-0.926-3.363-2.415-4.289-4.289c-1.522-3.081-4.693-5.201-8.363-5.201
					c-3.67,0-6.841,2.12-8.363,5.201c-0.926,1.874-2.415,3.363-4.289,4.289c-3.081,1.522-5.201,4.693-5.201,8.363
					c0,1.003,0.171,1.964,0.464,2.869c0.592-0.118,1.197-0.201,1.824-0.201c3.67,0,6.841,2.12,8.363,5.201
					c0.926,1.874,2.415,3.363,4.289,4.289c1.118,0.552,2.103,1.326,2.912,2.257c0.809-0.931,1.795-1.705,2.912-2.257
					c1.874-0.926,3.363-2.415,4.289-4.289C189.951,161.185,192.354,159.312,195.228,158.739L195.228,158.739z"/>
			</g>
		</g>
		<g>
			<g>
				<path fill="#FEB872" d="M164.099,158.739c-0.293-0.905-0.464-1.865-0.464-2.869c0-2.339,0.866-4.47,2.288-6.106
					c-0.809-0.931-1.795-1.705-2.912-2.257c-1.874-0.926-3.363-2.415-4.289-4.289c-1.522-3.081-4.693-5.201-8.363-5.201
					s-6.841,2.12-8.363,5.201c-0.926,1.874-2.415,3.363-4.289,4.289c-3.081,1.522-5.201,4.693-5.201,8.363
					c0,1.003,0.171,1.964,0.464,2.869c0.592-0.118,1.197-0.201,1.824-0.201c3.67,0,6.841,2.12,8.363,5.201
					c0.926,1.874,2.415,3.363,4.289,4.289c1.118,0.552,2.103,1.326,2.912,2.257c0.809-0.931,1.795-1.705,2.912-2.257
					c1.874-0.926,3.363-2.415,4.289-4.289C158.822,161.185,161.225,159.312,164.099,158.739L164.099,158.739z"/>
			</g>
		</g>
		<g>
			<g>
				<path fill="#E7974E" d="M179.663,138.218c-0.293-0.905-0.464-1.865-0.464-2.869c0-2.339,0.866-4.47,2.288-6.106
					c-0.809-0.931-1.795-1.705-2.912-2.257c-1.874-0.926-3.363-2.415-4.289-4.289c-1.522-3.081-4.693-5.201-8.363-5.201
					c-3.67,0-6.841,2.12-8.363,5.201c-0.926,1.874-2.415,3.363-4.289,4.289c-3.081,1.522-5.201,4.693-5.201,8.363
					c0,1.003,0.171,1.964,0.464,2.869c0.592-0.118,1.197-0.201,1.824-0.201c3.67,0,6.841,2.12,8.363,5.201
					c0.926,1.874,2.415,3.363,4.289,4.289c1.118,0.552,2.103,1.326,2.912,2.257c0.809-0.931,1.795-1.705,2.912-2.257
					c1.874-0.926,3.363-2.415,4.289-4.289C174.386,140.664,176.79,138.791,179.663,138.218
					C179.663,138.218,179.663,138.218,179.663,138.218z"/>
			</g>
		</g>
		<g>
			<path fill="#FEB872" d="M210.328,176.391c0-2.339,0.866-4.47,2.288-6.106c-0.809-0.931-1.795-1.705-2.912-2.257
				c-1.874-0.926-3.363-2.415-4.289-4.289c-1.522-3.081-4.693-5.201-8.363-5.201c-3.67,0-6.841,2.12-8.363,5.201
				c-0.926,1.874-2.415,3.363-4.289,4.289c-3.081,1.522-5.201,4.693-5.201,8.363c0,3.67,2.12,6.841,5.201,8.363
				c1.874,0.926,3.363,2.415,4.289,4.289c1.522,3.081,4.693,5.201,8.363,5.201c3.67,0,6.841-2.12,8.363-5.201
				c0.926-1.874,2.415-3.363,4.289-4.289c1.118-0.552,2.103-1.326,2.912-2.257C211.194,180.861,210.328,178.73,210.328,176.391z"/>
		</g>
		<g>
			<path fill="#E7974E" d="M179.199,176.391c0-2.339,0.866-4.47,2.288-6.106c-0.809-0.931-1.795-1.705-2.912-2.257
				c-1.874-0.926-3.363-2.415-4.289-4.289c-1.522-3.081-4.693-5.201-8.363-5.201c-3.67,0-6.841,2.12-8.363,5.201
				c-0.926,1.874-2.415,3.363-4.289,4.289c-3.081,1.522-5.201,4.693-5.201,8.363c0,3.67,2.12,6.841,5.201,8.363
				c1.874,0.926,3.363,2.415,4.289,4.289c1.522,3.081,4.693,5.201,8.363,5.201c3.67,0,6.841-2.12,8.363-5.201
				c0.926-1.874,2.415-3.363,4.289-4.289c1.118-0.552,2.103-1.326,2.912-2.257C180.065,180.861,179.199,178.73,179.199,176.391z"/>
		</g>
		<g>
			<path fill="#FEB872" d="M148.07,176.391c0-2.339,0.866-4.47,2.288-6.106c-0.809-0.931-1.795-1.705-2.912-2.257
				c-1.874-0.926-3.363-2.415-4.289-4.289c-1.522-3.081-4.693-5.201-8.363-5.201c-3.67,0-6.841,2.12-8.363,5.201
				c-0.926,1.874-2.415,3.363-4.289,4.289c-3.081,1.522-5.201,4.693-5.201,8.363c0,3.67,2.12,6.841,5.201,8.363
				c1.874,0.926,3.363,2.415,4.289,4.289c1.522,3.081,4.693,5.201,8.363,5.201c3.67,0,6.841-2.12,8.363-5.201
				c0.926-1.874,2.415-3.363,4.289-4.289c1.118-0.552,2.103-1.326,2.912-2.257C148.937,180.861,148.07,178.73,148.07,176.391z"/>
		</g>
		<g>
			<g>
				<path fill="#C18E6B" d="M141.996,143.218c1.262-2.555,3.666-4.428,6.54-5l-0.001,0c-0.293-0.905-0.464-1.865-0.464-2.869
					c0-3.67,2.12-6.841,5.201-8.363c1.874-0.926,3.363-2.415,4.289-4.289c1.522-3.081,4.693-5.201,8.363-5.201
					c1.988,0,3.818,0.637,5.33,1.697c2.277-4.68,4.115-9.612,5.46-14.745c1.029-3.925-1.886-7.775-5.944-7.775H16.119
					c-4.058,0-6.973,3.85-5.944,7.775c3.612,13.785,10.777,26.131,20.461,35.997c3.626,3.695,8.598,5.761,13.775,5.761h95.219
					C140.602,145.381,141.419,144.386,141.996,143.218z"/>
			</g>
		</g>
		<g>
			<path fill="#A57453" d="M170.77,96.675H16.119c-4.058,0-6.973,3.85-5.944,7.775c0.358,1.366,0.761,2.714,1.188,4.051h164.169
				c0.427-1.336,0.825-2.685,1.183-4.051C177.742,100.524,174.827,96.675,170.77,96.675z"/>
		</g>
		<g>
			<path d="M228.18,196.744c-4.532,0-8.595-2.526-10.604-6.593c-0.683-1.382-1.773-2.473-3.155-3.155
				c-4.067-2.009-6.593-6.072-6.593-10.604c0-4.532,2.526-8.596,6.593-10.604c1.382-0.683,2.473-1.773,3.155-3.155
				c2.009-4.067,6.072-6.593,10.604-6.593c4.532,0,8.596,2.526,10.604,6.593c0.683,1.382,1.773,2.473,3.155,3.155
				c4.067,2.009,6.593,6.072,6.593,10.604c0,4.532-2.526,8.595-6.593,10.604c-1.382,0.683-2.473,1.773-3.155,3.155
				C236.776,194.218,232.712,196.744,228.18,196.744z M228.18,161.039c-2.616,0-4.961,1.459-6.122,3.808
				c-1.173,2.375-3.048,4.25-5.423,5.423c-2.349,1.161-3.808,3.506-3.808,6.122s1.459,4.961,3.808,6.122
				c2.375,1.173,4.25,3.048,5.423,5.423c1.161,2.349,3.506,3.808,6.122,3.808s4.961-1.459,6.122-3.808
				c1.173-2.375,3.048-4.25,5.423-5.423c2.349-1.161,3.808-3.506,3.808-6.122s-1.459-4.961-3.808-6.122
				c-2.375-1.173-4.25-3.048-5.423-5.423C233.142,162.498,230.796,161.039,228.18,161.039z"/>
		</g>
		<g>
			<path d="M108.21,232.625c-4.532,0-8.595-2.526-10.604-6.593c-0.683-1.382-1.773-2.473-3.155-3.155
				c-4.067-2.008-6.593-6.072-6.593-10.604c0-4.533,2.526-8.596,6.594-10.605c1.381-0.682,2.472-1.773,3.154-3.155
				c2.009-4.067,6.073-6.593,10.604-6.593s8.595,2.526,10.604,6.593c0.683,1.382,1.773,2.473,3.155,3.155
				c4.067,2.009,6.594,6.072,6.594,10.604s-2.527,8.595-6.594,10.604c-1.381,0.682-2.472,1.773-3.154,3.155
				C116.805,230.099,112.742,232.625,108.21,232.625z M108.21,196.919c-2.615,0-4.961,1.459-6.122,3.808
				c-1.173,2.375-3.048,4.25-5.422,5.423c-2.349,1.16-3.808,3.506-3.808,6.122c0,2.616,1.459,4.961,3.808,6.121
				c2.375,1.173,4.25,3.048,5.423,5.423c1.161,2.349,3.507,3.808,6.122,3.808s4.961-1.459,6.122-3.808
				c1.173-2.375,3.048-4.25,5.422-5.423c2.349-1.161,3.809-3.506,3.809-6.122s-1.459-4.961-3.808-6.122
				c-2.375-1.174-4.25-3.049-5.423-5.423C113.171,198.378,110.825,196.919,108.21,196.919z"/>
		</g>
		<g>
			<path d="M212.34,109.925c-3.486,0-6.612-1.943-8.158-5.072c-0.411-0.832-1.068-1.489-1.899-1.899
				c-3.128-1.545-5.072-4.671-5.072-8.158s1.943-6.612,5.072-8.158c0.832-0.411,1.489-1.068,1.899-1.899
				c1.545-3.129,4.671-5.072,8.158-5.072s6.612,1.943,8.158,5.072c0.411,0.832,1.068,1.489,1.9,1.9
				c3.128,1.545,5.071,4.671,5.071,8.157s-1.943,6.612-5.072,8.158c-0.832,0.411-1.488,1.068-1.9,1.9
				C218.952,107.982,215.826,109.925,212.34,109.925z M212.34,84.667c-1.57,0-2.978,0.876-3.674,2.286
				c-0.901,1.825-2.343,3.266-4.168,4.168c-1.411,0.697-2.287,2.104-2.287,3.675s0.876,2.978,2.286,3.674
				c1.826,0.902,3.267,2.343,4.169,4.169c0.696,1.41,2.104,2.286,3.674,2.286s2.978-0.876,3.674-2.286
				c0.903-1.826,2.344-3.268,4.169-4.169c1.41-0.696,2.286-2.104,2.286-3.674s-0.876-2.978-2.286-3.674
				c-1.825-0.902-3.267-2.344-4.168-4.168C215.318,85.543,213.91,84.667,212.34,84.667z"/>
		</g>
		<g>
			<path d="M197.052,152.265c-0.724,0-1.412-0.313-1.887-0.86c-0.609-0.7-1.327-1.258-2.133-1.656
				c-2.375-1.173-4.25-3.048-5.422-5.423c-1.161-2.349-3.507-3.808-6.122-3.808c-0.39,0-0.814,0.048-1.335,0.152
				c-1.243,0.249-2.477-0.475-2.868-1.682c-0.389-1.201-0.586-2.425-0.586-3.638c0-4.532,2.527-8.596,6.594-10.605
				c1.381-0.682,2.472-1.773,3.154-3.155c2.009-4.067,6.073-6.593,10.604-6.593s8.595,2.526,10.604,6.593
				c0.683,1.382,1.773,2.473,3.155,3.155c4.067,2.008,6.593,6.072,6.593,10.604c0,1.215-0.197,2.439-0.586,3.64
				c-0.391,1.207-1.62,1.928-2.868,1.681c-0.52-0.104-0.944-0.152-1.334-0.152c-2.615,0-4.961,1.459-6.122,3.808
				c-1.173,2.375-3.048,4.25-5.423,5.423c-0.807,0.399-1.524,0.956-2.132,1.656C198.464,151.951,197.776,152.265,197.052,152.265z
				 M181.701,135.52c4.445,0.078,8.413,2.588,10.391,6.591c0.683,1.382,1.773,2.473,3.155,3.155
				c0.636,0.314,1.239,0.683,1.805,1.105c0.566-0.421,1.168-0.791,1.804-1.105c1.382-0.683,2.473-1.773,3.156-3.155
				c1.978-4.002,5.945-6.513,10.39-6.591c0.001-0.057,0.002-0.113,0.002-0.17c0-2.616-1.459-4.962-3.808-6.122
				c-2.375-1.173-4.25-3.048-5.423-5.423c-1.161-2.349-3.507-3.808-6.122-3.808s-4.961,1.459-6.122,3.808
				c-1.173,2.375-3.048,4.25-5.422,5.423c-2.349,1.161-3.809,3.506-3.809,6.122C181.699,135.406,181.7,135.463,181.701,135.52z"/>
		</g>
		<g>
			<path d="M212.617,172.786c-0.724,0-1.412-0.313-1.887-0.86c-0.609-0.7-1.327-1.258-2.133-1.656
				c-2.374-1.173-4.25-3.048-5.422-5.423c-1.161-2.349-3.507-3.808-6.122-3.808c-0.39,0-0.814,0.048-1.335,0.152
				c-1.244,0.248-2.477-0.475-2.868-1.682c-0.389-1.201-0.586-2.425-0.586-3.638c0-4.532,2.526-8.596,6.593-10.604
				c1.382-0.683,2.473-1.773,3.155-3.155c2.009-4.067,6.073-6.593,10.604-6.593s8.595,2.526,10.604,6.593
				c0.683,1.382,1.773,2.473,3.155,3.155c4.067,2.009,6.593,6.072,6.593,10.604c0,1.215-0.197,2.439-0.586,3.64
				c-0.391,1.207-1.621,1.931-2.867,1.681c-0.521-0.104-0.945-0.152-1.335-0.152c-2.616,0-4.961,1.459-6.122,3.808
				c-1.173,2.375-3.048,4.25-5.423,5.423c-0.807,0.399-1.524,0.956-2.132,1.656C214.029,172.472,213.34,172.786,212.617,172.786z
				 M197.266,156.041c4.445,0.078,8.413,2.588,10.391,6.591c0.683,1.382,1.773,2.473,3.155,3.155
				c0.636,0.314,1.239,0.683,1.805,1.105c0.566-0.422,1.169-0.791,1.805-1.105c1.382-0.683,2.473-1.773,3.155-3.155
				c1.977-4.003,5.945-6.513,10.39-6.591c0.001-0.057,0.002-0.113,0.002-0.17c0-2.616-1.459-4.961-3.808-6.122
				c-2.375-1.173-4.25-3.048-5.423-5.423c-1.161-2.349-3.506-3.808-6.122-3.808c-2.615,0-4.961,1.459-6.122,3.808
				c-1.173,2.375-3.048,4.25-5.423,5.423c-2.349,1.161-3.808,3.506-3.808,6.122C197.263,155.927,197.264,155.984,197.266,156.041z"
				/>
		</g>
		<g>
			<g>
				<path d="M181.487,172.786L181.487,172.786c-0.724,0-1.413-0.314-1.887-0.86c-0.608-0.7-1.326-1.257-2.133-1.656
					c-2.374-1.173-4.25-3.048-5.422-5.423c-1.161-2.349-3.507-3.808-6.122-3.808c-0.39,0-0.814,0.048-1.334,0.152
					c-1.245,0.25-2.477-0.475-2.868-1.681c-0.389-1.2-0.586-2.424-0.586-3.64c0-4.533,2.526-8.596,6.594-10.605
					c1.381-0.682,2.472-1.773,3.154-3.154c2.01-4.067,6.073-6.594,10.605-6.594s8.595,2.526,10.604,6.593
					c0.683,1.382,1.773,2.473,3.155,3.155c1.404,0.693,2.646,1.655,3.692,2.858c0.817,0.94,0.818,2.339,0,3.28
					c-1.081,1.244-1.676,2.83-1.676,4.466c0,0.689,0.115,1.396,0.343,2.099c0.22,0.679,0.139,1.419-0.222,2.035
					c-0.361,0.616-0.968,1.047-1.668,1.187c-2.069,0.412-3.859,1.779-4.786,3.656c-1.173,2.375-3.048,4.25-5.422,5.423
					c-0.807,0.398-1.524,0.956-2.133,1.656C182.899,172.472,182.211,172.786,181.487,172.786z M166.137,156.041
					c4.445,0.078,8.413,2.589,10.39,6.591c0.683,1.382,1.773,2.473,3.155,3.155c0.636,0.314,1.239,0.684,1.805,1.105
					c0.566-0.422,1.169-0.791,1.805-1.105c1.381-0.683,2.472-1.773,3.155-3.155c1.234-2.499,3.345-4.477,5.877-5.584
					c-0.041-0.393-0.062-0.785-0.062-1.177c0-2.01,0.516-3.975,1.479-5.714c-0.229-0.15-0.465-0.286-0.711-0.408
					c-2.375-1.173-4.25-3.048-5.422-5.423c-1.161-2.349-3.507-3.808-6.122-3.808s-4.961,1.459-6.122,3.808
					c-1.172,2.374-3.047,4.25-5.422,5.423c-2.349,1.16-3.808,3.506-3.808,6.122C166.135,155.927,166.136,155.984,166.137,156.041z"
					/>
			</g>
		</g>
		<g>
			<g>
				<path d="M150.359,172.786c-0.724,0-1.412-0.313-1.887-0.86c-0.609-0.7-1.327-1.258-2.133-1.656
					c-2.375-1.173-4.25-3.048-5.423-5.423c-1.161-2.349-3.506-3.808-6.122-3.808c-0.39,0-0.814,0.048-1.335,0.152
					c-1.246,0.25-2.476-0.475-2.867-1.681c-0.389-1.2-0.586-2.424-0.586-3.64c0-4.532,2.526-8.596,6.593-10.604
					c1.382-0.683,2.473-1.773,3.155-3.155c2.009-4.067,6.072-6.593,10.604-6.593c4.532,0,8.595,2.526,10.604,6.593
					c0.683,1.382,1.773,2.473,3.155,3.155c1.404,0.694,2.646,1.656,3.692,2.859c0.817,0.94,0.817,2.339,0,3.28
					c-1.08,1.243-1.675,2.829-1.675,4.466c0,0.691,0.115,1.396,0.342,2.098c0.22,0.679,0.14,1.42-0.221,2.036
					c-0.361,0.616-0.968,1.048-1.668,1.187c-2.069,0.412-3.859,1.779-4.786,3.656c-1.173,2.375-3.048,4.25-5.423,5.423
					c-0.807,0.399-1.524,0.956-2.132,1.656C151.771,172.472,151.083,172.786,150.359,172.786z M135.008,156.041
					c4.445,0.078,8.413,2.588,10.39,6.591c0.683,1.382,1.773,2.473,3.155,3.155c0.636,0.314,1.239,0.683,1.805,1.105
					c0.566-0.422,1.169-0.791,1.805-1.105c1.382-0.683,2.473-1.773,3.155-3.155c1.235-2.499,3.345-4.477,5.877-5.584
					c-0.041-0.393-0.062-0.785-0.062-1.177c0-2.011,0.516-3.976,1.479-5.715c-0.228-0.15-0.465-0.286-0.71-0.407
					c-2.375-1.173-4.25-3.048-5.423-5.423c-1.161-2.349-3.506-3.808-6.122-3.808s-4.961,1.459-6.122,3.808
					c-1.173,2.375-3.048,4.25-5.423,5.423c-2.349,1.161-3.808,3.506-3.808,6.122C135.006,155.927,135.007,155.984,135.008,156.041z"
					/>
			</g>
		</g>
		<g>
			<g>
				<path d="M165.923,152.265C165.923,152.265,165.923,152.265,165.923,152.265c-0.724,0-1.413-0.314-1.887-0.86
					c-0.608-0.7-1.326-1.257-2.132-1.656c-2.375-1.173-4.25-3.048-5.423-5.423c-1.161-2.349-3.506-3.808-6.122-3.808
					c-0.39,0-0.814,0.048-1.335,0.152c-1.245,0.248-2.476-0.474-2.867-1.681c-0.389-1.2-0.586-2.424-0.586-3.64
					c0-4.532,2.526-8.596,6.593-10.604c1.382-0.683,2.473-1.773,3.155-3.155c2.009-4.067,6.072-6.593,10.604-6.593
					s8.595,2.526,10.604,6.593c0.683,1.382,1.773,2.473,3.155,3.155c1.405,0.694,2.647,1.656,3.692,2.859
					c0.817,0.94,0.817,2.339,0,3.279c-1.081,1.244-1.676,2.83-1.676,4.466c0,0.689,0.115,1.396,0.343,2.099
					c0.22,0.679,0.139,1.419-0.222,2.035c-0.361,0.616-0.968,1.047-1.668,1.187c-2.069,0.412-3.859,1.779-4.786,3.656
					c-1.172,2.374-3.047,4.25-5.422,5.423c-0.807,0.398-1.524,0.956-2.133,1.656C167.334,151.951,166.646,152.265,165.923,152.265z
					 M150.573,135.52c4.445,0.078,8.413,2.588,10.39,6.591c0.683,1.382,1.773,2.473,3.155,3.155
					c0.636,0.314,1.239,0.683,1.805,1.105c0.566-0.422,1.169-0.791,1.805-1.105c1.382-0.683,2.472-1.773,3.154-3.155
					c1.235-2.5,3.346-4.477,5.878-5.585c-0.041-0.393-0.062-0.785-0.062-1.177c0-2.01,0.516-3.975,1.479-5.715
					c-0.228-0.15-0.465-0.286-0.711-0.407c-2.374-1.173-4.25-3.048-5.422-5.423c-1.161-2.349-3.507-3.808-6.122-3.808
					c-2.616,0-4.961,1.459-6.122,3.808c-1.173,2.375-3.048,4.25-5.423,5.423c-2.349,1.161-3.808,3.506-3.808,6.122
					C150.57,135.406,150.571,135.463,150.573,135.52z"/>
			</g>
		</g>
		<g>
			<path d="M197.052,196.744c-4.532,0-8.595-2.526-10.604-6.593c-0.683-1.382-1.773-2.473-3.155-3.155
				c-4.067-2.009-6.594-6.072-6.594-10.604s2.527-8.596,6.594-10.605c1.381-0.682,2.472-1.773,3.154-3.155
				c2.009-4.067,6.073-6.593,10.604-6.593s8.595,2.526,10.604,6.593c0.683,1.382,1.773,2.473,3.155,3.155
				c1.404,0.693,2.646,1.655,3.692,2.858c0.818,0.94,0.818,2.34,0,3.28c-1.08,1.243-1.675,2.829-1.675,4.466
				s0.595,3.223,1.675,4.465c0.818,0.941,0.818,2.34,0,3.281c-1.046,1.203-2.288,2.165-3.692,2.858
				c-1.382,0.683-2.472,1.773-3.154,3.155C205.647,194.218,201.583,196.744,197.052,196.744z M197.052,161.039
				c-2.615,0-4.961,1.459-6.122,3.808c-1.173,2.375-3.048,4.25-5.422,5.423c-2.349,1.161-3.809,3.506-3.809,6.122
				s1.459,4.961,3.808,6.121c2.375,1.174,4.25,3.049,5.423,5.423c1.161,2.349,3.507,3.808,6.122,3.808s4.961-1.459,6.122-3.808
				c1.172-2.374,3.047-4.25,5.422-5.423c0.245-0.122,0.482-0.257,0.71-0.407c-0.963-1.739-1.479-3.704-1.479-5.714
				c0-2.01,0.516-3.975,1.479-5.715c-0.229-0.15-0.466-0.286-0.711-0.407c-2.375-1.173-4.25-3.049-5.423-5.423
				C202.013,162.498,199.667,161.039,197.052,161.039z"/>
		</g>
		<g>
			<path d="M165.923,196.744c-4.532,0-8.595-2.526-10.604-6.593c-0.683-1.382-1.773-2.473-3.155-3.155
				c-4.067-2.009-6.593-6.072-6.593-10.604c0-4.532,2.526-8.596,6.593-10.604c1.382-0.683,2.473-1.773,3.155-3.155
				c2.009-4.067,6.072-6.593,10.604-6.593s8.595,2.526,10.604,6.593c0.683,1.382,1.773,2.473,3.155,3.155
				c1.405,0.694,2.647,1.656,3.692,2.859c0.817,0.94,0.817,2.339,0,3.279c-1.081,1.244-1.676,2.83-1.676,4.466
				s0.595,3.223,1.675,4.465c0.817,0.94,0.818,2.339,0,3.28c-1.045,1.203-2.287,2.165-3.691,2.859
				c-1.382,0.683-2.473,1.773-3.156,3.155C174.518,194.218,170.455,196.744,165.923,196.744z M165.923,161.039
				c-2.616,0-4.961,1.459-6.122,3.808c-1.173,2.375-3.048,4.25-5.423,5.423c-2.349,1.161-3.808,3.506-3.808,6.122
				s1.459,4.961,3.808,6.122c2.375,1.173,4.25,3.048,5.423,5.423c1.161,2.349,3.506,3.808,6.122,3.808
				c2.615,0,4.961-1.459,6.122-3.808c1.173-2.375,3.048-4.25,5.423-5.423c0.245-0.122,0.482-0.257,0.71-0.407
				c-0.964-1.74-1.479-3.704-1.479-5.714s0.516-3.975,1.479-5.715c-0.228-0.15-0.465-0.286-0.711-0.407
				c-2.374-1.173-4.25-3.048-5.422-5.423C170.884,162.498,168.538,161.039,165.923,161.039z"/>
		</g>
		<g>
			<path d="M134.794,196.744c-4.532,0-8.595-2.526-10.604-6.593c-0.683-1.382-1.773-2.473-3.155-3.155
				c-4.067-2.009-6.593-6.072-6.593-10.604c0-4.532,2.526-8.596,6.593-10.604c1.382-0.683,2.473-1.773,3.155-3.155
				c2.009-4.067,6.073-6.593,10.604-6.593s8.595,2.526,10.604,6.593c0.683,1.382,1.773,2.473,3.155,3.155
				c1.404,0.693,2.646,1.655,3.692,2.858c0.818,0.94,0.818,2.34,0,3.28c-1.08,1.243-1.675,2.829-1.675,4.466
				s0.595,3.223,1.675,4.465c0.818,0.941,0.818,2.34,0,3.281c-1.046,1.203-2.288,2.165-3.692,2.858
				c-1.382,0.683-2.473,1.773-3.155,3.155C143.39,194.218,139.326,196.744,134.794,196.744z M134.794,161.039
				c-2.615,0-4.961,1.459-6.122,3.808c-1.173,2.375-3.048,4.25-5.423,5.423c-2.349,1.161-3.808,3.506-3.808,6.122
				s1.459,4.961,3.808,6.122c2.375,1.173,4.25,3.048,5.423,5.423c1.161,2.349,3.507,3.808,6.122,3.808
				c2.616,0,4.961-1.459,6.122-3.808c1.173-2.375,3.048-4.25,5.423-5.423c0.245-0.122,0.482-0.257,0.71-0.407
				c-0.963-1.739-1.479-3.704-1.479-5.714c0-2.01,0.516-3.975,1.479-5.715c-0.229-0.15-0.466-0.286-0.711-0.407
				c-2.375-1.173-4.25-3.048-5.423-5.423C139.755,162.498,137.41,161.039,134.794,161.039z"/>
		</g>
		<g>
			<g>
				<path d="M139.63,148.707H44.411c-5.828,0-11.499-2.373-15.56-6.51C18.705,131.86,11.41,119.026,7.756,105.083
					c-0.693-2.643-0.136-5.395,1.526-7.55c1.647-2.134,4.139-3.358,6.836-3.358H170.77c2.697,0,5.188,1.224,6.835,3.358
					c1.663,2.155,2.22,4.907,1.527,7.55c-1.369,5.222-3.263,10.337-5.631,15.205c-0.32,0.658-0.913,1.143-1.622,1.327
					c-0.708,0.183-1.461,0.047-2.062-0.373c-1.161-0.814-2.508-1.245-3.895-1.245c-2.616,0-4.961,1.459-6.122,3.808
					c-1.173,2.375-3.048,4.25-5.423,5.423c-2.349,1.161-3.808,3.506-3.808,6.122c0,0.691,0.115,1.396,0.342,2.098
					c0.22,0.679,0.14,1.42-0.221,2.036c-0.361,0.616-0.968,1.048-1.668,1.187c-2.069,0.413-3.859,1.779-4.786,3.656l0,0
					c-0.705,1.426-1.709,2.7-2.987,3.786C140.798,148.496,140.224,148.707,139.63,148.707z M16.119,99.175
					c-1.136,0-2.185,0.515-2.877,1.413c-0.708,0.918-0.945,2.095-0.648,3.228c3.433,13.102,10.289,25.163,19.827,34.879
					c3.126,3.186,7.497,5.012,11.991,5.012h94.227c0.46-0.49,0.834-1.025,1.117-1.596c1.234-2.499,3.345-4.476,5.877-5.584
					c-0.041-0.393-0.062-0.785-0.062-1.177c0-4.532,2.526-8.596,6.593-10.604c1.382-0.683,2.473-1.773,3.155-3.155
					c2.009-4.067,6.072-6.593,10.604-6.593c1.436,0,2.844,0.262,4.17,0.769c1.723-3.864,3.134-7.873,4.202-11.95
					c0.297-1.132,0.061-2.309-0.648-3.228c-0.693-0.898-1.742-1.413-2.877-1.413H16.119z M141.996,143.218h0.01H141.996z"/>
			</g>
		</g>
		<g>
			<path d="M164.745,99.174H22.143c-0.75,0-1.459-0.336-1.935-0.917c-1.616-1.974-2.506-4.467-2.506-7.019
				c0-5.94,4.649-10.807,10.585-11.08c1.332-0.061,2.554-0.817,3.352-2.074c1.794-2.827,4.984-4.649,8.75-4.999
				c1.389-0.129,2.576-0.849,3.343-2.028c1.917-2.946,5.141-4.827,8.622-5.032c1.436-0.085,2.712-0.829,3.501-2.04
				c1.922-2.953,5.141-4.834,8.612-5.031c1.532-0.087,2.859-0.907,3.639-2.249c1.76-3.027,4.859-4.864,8.109-4.815
				c1.37,0.032,2.616-0.499,3.437-1.435c0.73-0.832,1.502-1.573,2.292-2.203c6.772-5.39,16.227-5.39,22.996-0.002
				c0.792,0.631,1.563,1.373,2.293,2.204c0.824,0.939,2.093,1.459,3.444,1.437c3.289-0.056,6.344,1.782,8.102,4.814
				c0.78,1.346,2.107,2.166,3.64,2.25c3.469,0.192,6.688,2.074,8.614,5.034c0.79,1.213,2.066,1.956,3.503,2.037
				c3.475,0.197,6.697,2.078,8.62,5.034c0.769,1.183,1.959,1.903,3.351,2.027c3.757,0.335,6.942,2.155,8.738,4.992
				c0.798,1.261,2.021,2.019,3.354,2.08c5.937,0.271,10.587,5.138,10.587,11.08c0,2.552-0.89,5.045-2.507,7.019
				C166.205,98.838,165.495,99.174,164.745,99.174z M23.455,94.174h139.979c0.495-0.892,0.752-1.889,0.752-2.935
				c0-3.643-2.957-5.955-5.815-6.085l0,0c-2.942-0.135-5.69-1.78-7.35-4.4c-0.957-1.512-2.764-2.491-4.958-2.687
				c-2.911-0.26-5.497-1.821-7.097-4.281c-1.058-1.626-2.819-2.661-4.711-2.768c-3.043-0.172-5.745-1.741-7.412-4.303
				c-1.06-1.629-2.816-2.664-4.698-2.768c-3.198-0.176-6.072-1.946-7.689-4.735c-0.86-1.483-2.267-2.363-3.679-2.323
				c-2.826,0.064-5.502-1.088-7.3-3.138c-0.534-0.608-1.089-1.144-1.65-1.59c-4.936-3.928-11.83-3.929-16.764,0.001
				c-0.561,0.446-1.116,0.981-1.651,1.591c-1.792,2.043-4.438,3.183-7.283,3.136c-1.461-0.039-2.835,0.846-3.699,2.33
				c-1.616,2.778-4.486,4.546-7.678,4.728c-1.889,0.107-3.647,1.142-4.705,2.767c-1.663,2.556-4.359,4.124-7.397,4.304
				c-1.904,0.112-3.671,1.147-4.726,2.768c-1.595,2.45-4.172,4.01-7.072,4.279c-2.213,0.205-4.032,1.189-4.991,2.699
				c-1.659,2.614-4.404,4.254-7.343,4.39c-2.859,0.131-5.815,2.443-5.815,6.084C22.703,92.285,22.96,93.283,23.455,94.174z"/>
		</g>
		<g>
			<path d="M86.392,72.078h-2.547c-1.381,0-2.5-1.119-2.5-2.5s1.119-2.5,2.5-2.5h2.547c1.381,0,2.5,1.119,2.5,2.5
				S87.773,72.078,86.392,72.078z"/>
		</g>
		<g>
			<path d="M72.69,80.34h-2.547c-1.381,0-2.5-1.119-2.5-2.5s1.119-2.5,2.5-2.5h2.547c1.381,0,2.5,1.119,2.5,2.5
				S74.071,80.34,72.69,80.34z"/>
		</g>
		<g>
			<path d="M101.988,86.537H99.44c-1.381,0-2.5-1.119-2.5-2.5s1.119-2.5,2.5-2.5h2.547c1.381,0,2.5,1.119,2.5,2.5
				S103.369,86.537,101.988,86.537z"/>
		</g>
		<g>
			<path d="M175.531,111H11.362c-1.088,0-2.051-0.704-2.382-1.74c-0.487-1.527-0.888-2.894-1.224-4.178
				c-0.693-2.643-0.136-5.395,1.526-7.549c1.647-2.134,4.139-3.358,6.836-3.358H170.77c2.697,0,5.188,1.224,6.835,3.358
				c1.663,2.155,2.22,4.907,1.527,7.55c-0.352,1.344-0.751,2.71-1.22,4.178C177.581,110.297,176.618,111,175.531,111z M13.207,106
				h160.479c0.221-0.746,0.423-1.469,0.61-2.185c0.297-1.132,0.061-2.309-0.648-3.228c-0.693-0.898-1.742-1.413-2.877-1.413H16.119
				c-1.136,0-2.185,0.515-2.877,1.413c-0.708,0.918-0.945,2.095-0.648,3.228C12.775,104.51,12.978,105.233,13.207,106z"/>
		</g>
	</g>
<text style="fill: rgb(209, 31, 31); font-family: Aclonica; font-size: 28px; paint-order: stroke markers; white-space: pre;" x="230" y="135" transform="matrix(3.136994, 0, 0, 3.816513, -461.815582, -362.774048)">Masala</text>
</g>
</svg>
